<svg xmlns="http://www.w3.org/2000/svg" version="1.0" preserveAspectRatio="xMidYMid meet" viewBox="18.82 -2.59 162.32 203.71">

<g transform="translate(-25.000000,223.000000) scale(0.1250000,-0.1250000)" fill="#FFFFFF" stroke="none">
<path d="M915 1800 c-171 -20 -329 -110 -415 -235 -67 -99 -110 -277 -110 -460 0 -79 -2 -92 -20 -103 -27 -17 -26 -68 4 -140 13 -31 31 -82 41 -112 20 -64 56 -106 96 -115 21 -5 31 -15 40 -43 50 -156 175 -314 304 -384 55 -30 68 -33 145 -33 74 0 93 4 145 30 116 58 245 220 295 370 18 53 24 61 47 63 37 3 69 36 89 91 9 25 30 79 45 119 34 86 37 135 10 154 -16 11 -19 32 -24 153 -9 229 -52 342 -176 465 -141 141 -320 203 -516 180z m316 -380 c111 -12 161 -30 191 -71 44 -59 50 -468 9 -659 -29 -138 -95 -264 -186 -356 -83 -84 -145 -117 -232 -122 -54 -4 -71 0 -129 27 -146 68 -272 248 -320 457 -18 78 -31 442 -19 548 13 122 64 166 209 176 147 11 366 11 477 0z m-763 -460 c22 -14 32 -27 32 -45 0 -23 -2 -24 -20 -13 -15 10 -22 10 -32 0 -10 -10 -5 -18 23 -42 33 -26 37 -35 43 -94 4 -36 9 -73 12 -81 9 -23 -15 -18 -38 8 -18 21 -79 171 -95 234 -13 53 19 67 75 33z m1139 3 c6 -15 -41 -166 -74 -239 -8 -17 -26 -36 -40 -43 -24 -11 -25 -10 -20 11 3 13 9 49 12 81 6 48 12 61 36 78 37 26 39 53 4 47 -21 -4 -25 -1 -25 17 0 47 92 88 107 48z" fill="#FFFFFF"/>
<path d="M684 1110 c-54 -27 -91 -67 -77 -81 7 -7 24 -1 56 22 61 43 130 49 206 20 55 -21 71 -20 71 4 0 20 -78 47 -150 52 -52 3 -73 0 -106 -17z" fill="#FFFFFF"/>
<path d="M1180 1124 c-70 -23 -100 -38 -100 -49 0 -24 16 -25 71 -4 77 30 145 23 205 -21 35 -25 48 -30 57 -20 16 16 -49 73 -101 88 -40 12 -104 15 -132 6z" fill="#FFFFFF"/>
<path d="M765 1007 c-20 -16 -15 -44 11 -54 23 -9 51 23 38 44 -14 23 -27 26 -49 10z" fill="#FFFFFF"/>
<path d="M1212 1011 c-8 -4 -12 -19 -10 -32 2 -18 9 -24 28 -24 19 0 26 6 28 24 3 20 -11 41 -28 41 -3 0 -11 -4 -18 -9z" fill="#FFFFFF"/>
<path d="M980 831 c0 -82 4 -152 9 -156 15 -9 141 45 141 61 0 18 -29 18 -73 -1 l-36 -15 -3 127 c-3 112 -5 128 -20 131 -17 3 -18 -9 -18 -147z" fill="#FFFFFF"/>
<path d="M820 540 c0 -15 13 -23 58 -37 118 -36 352 -12 352 37 0 24 -6 25 -61 3 -30 -11 -75 -16 -144 -16 -69 0 -114 5 -144 16 -55 22 -61 21 -61 -3z" fill="#FFFFFF"/>
</g>
</svg>